<?xml version="1.0" encoding="UTF-8" standalone="no"?>
<!DOCTYPE svg PUBLIC "-//W3C//DTD SVG 1.1//EN" "http://www.w3.org/Graphics/SVG/1.1/DTD/svg11.dtd">
<svg width="100%" height="100%" viewBox="0 0 1280 800" version="1.1" xmlns="http://www.w3.org/2000/svg" xmlns:xlink="http://www.w3.org/1999/xlink" xml:space="preserve" xmlns:serif="http://www.serif.com/" style="fill-rule:evenodd;clip-rule:evenodd;stroke-linejoin:round;stroke-miterlimit:2;">
    <g>
        <rect x="0" y="0" width="1280" height="800" style="fill:rgb(255,44,44);"/>
        <g transform="matrix(-3.25156e-16,1.77007,-1.77007,-3.25156e-16,1173.64,-305.172)">
            <g transform="matrix(-0.447687,0.746063,-1.18635,-0.711887,365.513,175.341)">
                <path d="M104.872,-67.286C104.872,-67.286 71.956,305.215 71.956,464.859C71.956,476.283 86.705,485.559 104.872,485.559C123.039,485.559 137.788,476.283 137.788,464.859C137.788,305.215 104.872,-67.286 104.872,-67.286Z" style="fill:white;"/>
            </g>
            <g transform="matrix(-0.180345,0.851181,-1.3535,-0.286775,326.229,192.921)">
                <path d="M104.872,-67.286C104.872,-67.286 71.956,305.215 71.956,464.859C71.956,476.283 86.705,485.559 104.872,485.559C123.039,485.559 137.788,476.283 137.788,464.859C137.788,305.215 104.872,-67.286 104.872,-67.286Z" style="fill:white;"/>
            </g>
            <g transform="matrix(-0.628419,0.601766,-0.956896,-0.999278,399.906,171.137)">
                <path d="M104.872,-67.286C104.872,-67.286 71.956,305.215 71.956,464.859C71.956,476.283 86.705,485.559 104.872,485.559C123.039,485.559 137.788,476.283 137.788,464.859C137.788,305.215 104.872,-67.286 104.872,-67.286Z" style="fill:white;"/>
            </g>
            <g transform="matrix(-0.731093,0.471737,-0.75013,-1.16254,424.586,173.788)">
                <path d="M104.872,-67.286C104.872,-67.286 71.956,305.215 71.956,464.859C71.956,476.283 86.705,485.559 104.872,485.559C123.039,485.559 137.788,476.283 137.788,464.859C137.788,305.215 104.872,-67.286 104.872,-67.286Z" style="fill:white;"/>
            </g>
            <g transform="matrix(-0.811887,0.312847,-0.497473,-1.29102,450.059,181.806)">
                <path d="M104.872,-67.286C104.872,-67.286 71.956,305.215 71.956,464.859C71.956,476.283 86.705,485.559 104.872,485.559C123.039,485.559 137.788,476.283 137.788,464.859C137.788,305.215 104.872,-67.286 104.872,-67.286Z" style="fill:white;"/>
            </g>
            <g transform="matrix(-0.85584,0.15675,-0.249255,-1.36091,471.37,193.474)">
                <path d="M104.872,-67.286C104.872,-67.286 71.956,305.215 71.956,464.859C71.956,476.283 86.705,485.559 104.872,485.559C123.039,485.559 137.788,476.283 137.788,464.859C137.788,305.215 104.872,-67.286 104.872,-67.286Z" style="fill:white;"/>
            </g>
            <g transform="matrix(-0.870077,0.000281892,-0.000448248,-1.38355,489.843,208.36)">
                <path d="M104.872,-67.286C104.872,-67.286 71.956,305.215 71.956,464.859C71.956,476.283 86.705,485.559 104.872,485.559C123.039,485.559 137.788,476.283 137.788,464.859C137.788,305.215 104.872,-67.286 104.872,-67.286Z" style="fill:white;"/>
            </g>
        </g>
        <g transform="matrix(3.25156e-16,1.77007,1.77007,-3.25156e-16,106.356,-305.172)">
            <g transform="matrix(-0.447687,0.746063,-1.18635,-0.711887,365.513,175.341)">
                <path d="M104.872,-67.286C104.872,-67.286 71.956,305.215 71.956,464.859C71.956,476.283 86.705,485.559 104.872,485.559C123.039,485.559 137.788,476.283 137.788,464.859C137.788,305.215 104.872,-67.286 104.872,-67.286Z" style="fill:white;"/>
            </g>
            <g transform="matrix(-0.171312,0.853045,-1.35647,-0.27241,325.083,193.692)">
                <path d="M104.872,-67.286C104.872,-67.286 71.956,305.215 71.956,464.859C71.956,476.283 86.705,485.559 104.872,485.559C123.039,485.559 137.788,476.283 137.788,464.859C137.788,305.215 104.872,-67.286 104.872,-67.286Z" style="fill:white;"/>
            </g>
            <g transform="matrix(-0.628419,0.601766,-0.956896,-0.999278,399.906,171.137)">
                <path d="M104.872,-67.286C104.872,-67.286 71.956,305.215 71.956,464.859C71.956,476.283 86.705,485.559 104.872,485.559C123.039,485.559 137.788,476.283 137.788,464.859C137.788,305.215 104.872,-67.286 104.872,-67.286Z" style="fill:white;"/>
            </g>
            <g transform="matrix(-0.731093,0.471737,-0.75013,-1.16254,424.586,173.788)">
                <path d="M104.872,-67.286C104.872,-67.286 71.956,305.215 71.956,464.859C71.956,476.283 86.705,485.559 104.872,485.559C123.039,485.559 137.788,476.283 137.788,464.859C137.788,305.215 104.872,-67.286 104.872,-67.286Z" style="fill:white;"/>
            </g>
            <g transform="matrix(-0.811887,0.312847,-0.497473,-1.29102,450.059,181.806)">
                <path d="M104.872,-67.286C104.872,-67.286 71.956,305.215 71.956,464.859C71.956,476.283 86.705,485.559 104.872,485.559C123.039,485.559 137.788,476.283 137.788,464.859C137.788,305.215 104.872,-67.286 104.872,-67.286Z" style="fill:white;"/>
            </g>
            <g transform="matrix(-0.85584,0.15675,-0.249255,-1.36091,471.37,193.474)">
                <path d="M104.872,-67.286C104.872,-67.286 71.956,305.215 71.956,464.859C71.956,476.283 86.705,485.559 104.872,485.559C123.039,485.559 137.788,476.283 137.788,464.859C137.788,305.215 104.872,-67.286 104.872,-67.286Z" style="fill:white;"/>
            </g>
            <g transform="matrix(-0.870077,0.000281892,-0.000448248,-1.38355,489.843,208.36)">
                <path d="M104.872,-67.286C104.872,-67.286 71.956,305.215 71.956,464.859C71.956,476.283 86.705,485.559 104.872,485.559C123.039,485.559 137.788,476.283 137.788,464.859C137.788,305.215 104.872,-67.286 104.872,-67.286Z" style="fill:white;"/>
            </g>
        </g>
        <g transform="matrix(3.25156e-16,-1.77007,1.77007,3.25156e-16,106.356,1105.17)">
            <g transform="matrix(-0.447687,0.746063,-1.18635,-0.711887,365.513,175.341)">
                <path d="M104.872,-67.286C104.872,-67.286 71.956,305.215 71.956,464.859C71.956,476.283 86.705,485.559 104.872,485.559C123.039,485.559 137.788,476.283 137.788,464.859C137.788,305.215 104.872,-67.286 104.872,-67.286Z" style="fill:white;"/>
            </g>
            <g transform="matrix(-0.178156,0.851642,-1.35423,-0.283294,325.951,193.107)">
                <path d="M104.872,-67.286C104.872,-67.286 71.956,305.215 71.956,464.859C71.956,476.283 86.705,485.559 104.872,485.559C123.039,485.559 137.788,476.283 137.788,464.859C137.788,305.215 104.872,-67.286 104.872,-67.286Z" style="fill:white;"/>
            </g>
            <g transform="matrix(-0.628419,0.601766,-0.956896,-0.999278,399.906,171.137)">
                <path d="M104.872,-67.286C104.872,-67.286 71.956,305.215 71.956,464.859C71.956,476.283 86.705,485.559 104.872,485.559C123.039,485.559 137.788,476.283 137.788,464.859C137.788,305.215 104.872,-67.286 104.872,-67.286Z" style="fill:white;"/>
            </g>
            <g transform="matrix(-0.731093,0.471737,-0.75013,-1.16254,424.586,173.788)">
                <path d="M104.872,-67.286C104.872,-67.286 71.956,305.215 71.956,464.859C71.956,476.283 86.705,485.559 104.872,485.559C123.039,485.559 137.788,476.283 137.788,464.859C137.788,305.215 104.872,-67.286 104.872,-67.286Z" style="fill:white;"/>
            </g>
            <g transform="matrix(-0.811887,0.312847,-0.497473,-1.29102,450.059,181.806)">
                <path d="M104.872,-67.286C104.872,-67.286 71.956,305.215 71.956,464.859C71.956,476.283 86.705,485.559 104.872,485.559C123.039,485.559 137.788,476.283 137.788,464.859C137.788,305.215 104.872,-67.286 104.872,-67.286Z" style="fill:white;"/>
            </g>
            <g transform="matrix(-0.85584,0.15675,-0.249255,-1.36091,471.37,193.474)">
                <path d="M104.872,-67.286C104.872,-67.286 71.956,305.215 71.956,464.859C71.956,476.283 86.705,485.559 104.872,485.559C123.039,485.559 137.788,476.283 137.788,464.859C137.788,305.215 104.872,-67.286 104.872,-67.286Z" style="fill:white;"/>
            </g>
            <g transform="matrix(-0.870077,0.000281892,-0.000448248,-1.38355,489.843,208.36)">
                <path d="M104.872,-67.286C104.872,-67.286 71.956,305.215 71.956,464.859C71.956,476.283 86.705,485.559 104.872,485.559C123.039,485.559 137.788,476.283 137.788,464.859C137.788,305.215 104.872,-67.286 104.872,-67.286Z" style="fill:white;"/>
            </g>
        </g>
        <g transform="matrix(-3.25156e-16,-1.77007,-1.77007,3.25156e-16,1173.64,1105.17)">
            <g transform="matrix(-0.447687,0.746063,-1.18635,-0.711887,365.513,175.341)">
                <path d="M104.872,-67.286C104.872,-67.286 71.956,305.215 71.956,464.859C71.956,476.283 86.705,485.559 104.872,485.559C123.039,485.559 137.788,476.283 137.788,464.859C137.788,305.215 104.872,-67.286 104.872,-67.286Z" style="fill:white;"/>
            </g>
            <g transform="matrix(-0.179489,0.851362,-1.35379,-0.285413,326.12,192.994)">
                <path d="M104.872,-67.286C104.872,-67.286 71.956,305.215 71.956,464.859C71.956,476.283 86.705,485.559 104.872,485.559C123.039,485.559 137.788,476.283 137.788,464.859C137.788,305.215 104.872,-67.286 104.872,-67.286Z" style="fill:white;"/>
            </g>
            <g transform="matrix(-0.628419,0.601766,-0.956896,-0.999278,399.906,171.137)">
                <path d="M104.872,-67.286C104.872,-67.286 71.956,305.215 71.956,464.859C71.956,476.283 86.705,485.559 104.872,485.559C123.039,485.559 137.788,476.283 137.788,464.859C137.788,305.215 104.872,-67.286 104.872,-67.286Z" style="fill:white;"/>
            </g>
            <g transform="matrix(-0.731093,0.471737,-0.75013,-1.16254,424.586,173.788)">
                <path d="M104.872,-67.286C104.872,-67.286 71.956,305.215 71.956,464.859C71.956,476.283 86.705,485.559 104.872,485.559C123.039,485.559 137.788,476.283 137.788,464.859C137.788,305.215 104.872,-67.286 104.872,-67.286Z" style="fill:white;"/>
            </g>
            <g transform="matrix(-0.811887,0.312847,-0.497473,-1.29102,450.059,181.806)">
                <path d="M104.872,-67.286C104.872,-67.286 71.956,305.215 71.956,464.859C71.956,476.283 86.705,485.559 104.872,485.559C123.039,485.559 137.788,476.283 137.788,464.859C137.788,305.215 104.872,-67.286 104.872,-67.286Z" style="fill:white;"/>
            </g>
            <g transform="matrix(-0.85584,0.15675,-0.249255,-1.36091,471.37,193.474)">
                <path d="M104.872,-67.286C104.872,-67.286 71.956,305.215 71.956,464.859C71.956,476.283 86.705,485.559 104.872,485.559C123.039,485.559 137.788,476.283 137.788,464.859C137.788,305.215 104.872,-67.286 104.872,-67.286Z" style="fill:white;"/>
            </g>
            <g transform="matrix(-0.870077,0.000281892,-0.000448248,-1.38355,489.843,208.36)">
                <path d="M104.872,-67.286C104.872,-67.286 71.956,305.215 71.956,464.859C71.956,476.283 86.705,485.559 104.872,485.559C123.039,485.559 137.788,476.283 137.788,464.859C137.788,305.215 104.872,-67.286 104.872,-67.286Z" style="fill:white;"/>
            </g>
        </g>
    </g>
</svg>
